<svg width="56" height="47" viewBox="0 0 56 47" fill="none" xmlns="http://www.w3.org/2000/svg">
<path d="M41.1783 31.2265C37.665 27.7442 33.0763 25.6364 28.0501 25.6364C23.0238 25.6364 18.4352 27.7442 14.9156 31.2336C14.8184 31.3335 14.7589 31.4723 14.7495 31.621C14.7402 31.7696 14.7818 31.9167 14.8655 32.0312L17.1161 35.0862C17.2974 35.3283 17.6162 35.3568 17.8288 35.1503C20.5545 32.4158 24.1304 30.7636 28.0501 30.7636C31.9698 30.7636 35.5457 32.4158 38.2714 35.1432C38.4839 35.3497 38.8028 35.3212 38.9841 35.0791L41.2346 32.0241C41.4097 31.7891 41.3846 31.433 41.1783 31.2265ZM48.5177 21.2497C42.9725 15.9871 35.8395 12.8182 28.0501 12.8182C20.2606 12.8182 13.1276 15.9871 7.57623 21.2497C7.47467 21.3473 7.41111 21.4866 7.39939 21.6374C7.38768 21.7881 7.42878 21.938 7.51371 22.0544L9.76427 25.1094C9.93932 25.3515 10.2581 25.38 10.4644 25.1806C15.2344 20.6658 21.3672 17.9455 28.0501 17.9455C34.733 17.9455 40.8658 20.6658 45.6295 25.1806C45.842 25.38 46.1546 25.3515 46.3296 25.1094L48.5802 22.0544C48.7552 21.8123 48.7302 21.4491 48.5177 21.2497ZM55.8132 11.3512C48.2239 4.25848 38.5089 0 27.925 0C17.4099 0 7.75752 4.20151 0.186888 11.2088C0.134875 11.2564 0.0917495 11.3154 0.0600505 11.3822C0.0283516 11.4491 0.00872023 11.5225 0.00231213 11.5982C-0.00409598 11.6738 0.00284886 11.7502 0.0227378 11.8227C0.0426267 11.8953 0.0750573 11.9626 0.11812 12.0206L2.36868 15.0756C2.54372 15.3106 2.8563 15.3462 3.0626 15.1539C9.85805 8.88015 18.504 5.12727 27.925 5.12727C37.4149 5.12727 46.1171 8.93712 52.9313 15.2892C53.1438 15.4886 53.4564 15.453 53.6315 15.2109L55.882 12.1559C56.0633 11.9138 56.032 11.5506 55.8132 11.3512ZM23.9866 42.4424C23.9866 43.6512 24.4081 44.8104 25.1584 45.6651C25.9088 46.5198 26.9264 47 27.9876 47C29.0487 47 30.0664 46.5198 30.8167 45.6651C31.567 44.8104 31.9886 43.6512 31.9886 42.4424C31.9886 41.2337 31.567 40.0744 30.8167 39.2197C30.0664 38.365 29.0487 37.8848 27.9876 37.8848C26.9264 37.8848 25.9088 38.365 25.1584 39.2197C24.4081 40.0744 23.9866 41.2337 23.9866 42.4424Z" fill="white"/>
</svg>
